<?xml version="1.0" encoding="UTF-8" standalone="no"?>
<!-- Uploaded to: SVG Repo, www.svgrepo.com, Generator: SVG Repo Mixer Tools -->

<svg
   fill="#000000"
   height="800px"
   width="800px"
   version="1.1"
   id="Layer_1"
   viewBox="0 0 512 512"
   xml:space="preserve"
   sodipodi:docname="bow.svg"
   inkscape:version="1.2.1 (9c6d41e, 2022-07-14)"
   xmlns:inkscape="http://www.inkscape.org/namespaces/inkscape"
   xmlns:sodipodi="http://sodipodi.sourceforge.net/DTD/sodipodi-0.dtd"
   xmlns="http://www.w3.org/2000/svg"
   xmlns:svg="http://www.w3.org/2000/svg"><defs
   id="defs141" /><sodipodi:namedview
   id="namedview139"
   pagecolor="#ffffff"
   bordercolor="#000000"
   borderopacity="0.25"
   inkscape:showpageshadow="2"
   inkscape:pageopacity="0.0"
   inkscape:pagecheckerboard="0"
   inkscape:deskcolor="#d1d1d1"
   showgrid="false"
   inkscape:zoom="0.295"
   inkscape:cx="-230.50847"
   inkscape:cy="359.32203"
   inkscape:window-width="1309"
   inkscape:window-height="430"
   inkscape:window-x="0"
   inkscape:window-y="25"
   inkscape:window-maximized="0"
   inkscape:current-layer="g134" />
<g
   id="g136">
	<g
   id="g134">
		<path
   d="M512,145.067c0-85.333-51.2-136.533-51.2-136.533c-68.516,0-125.795,44.908-162.2,83.212    c-11.679-9.342-26.482-14.942-42.6-14.942s-30.921,5.6-42.6,14.942C176.995,53.441,119.716,8.533,51.2,8.533    c0,0-51.2,51.2-51.2,136.533S51.2,281.6,51.2,281.6c29.954,0,57.76-8.585,82.615-21.446L85.333,486.4l68.267-51.2l68.267,68.267    L256,213.337l34.133,290.13L358.4,435.2l68.267,51.2l-48.481-226.246C403.04,273.016,430.846,281.6,460.8,281.6    C460.8,281.6,512,230.4,512,145.067z"
   id="path132"
   style="fill:#ffb93f;fill-opacity:1" />
	</g>
</g>
</svg>
